{"title":"Formula 1 2013 Bahrain Grand Prix - Qualifying Sky 720p","uid":8392225,"size":1013497795,"categoryP":"video","categoryS":"hd___tv_shows","magnet":"?xt=urn:btih:853467856947d359fac4aa00eb6046f60e55f4f3&amp;dn=Formula+1+2013+Bahrain+Grand+Prix+-+Qualifying+Sky+720p&amp;tr=udp%3A%2F%2Ftracker.openbittorrent.com%3A80&amp;tr=udp%3A%2F%2Fopen.demonii.com%3A1337&amp;tr=udp%3A%2F%2Ftracker.coppersurfer.tk%3A6969&amp;tr=udp%3A%2F%2Fexodus.desync.com%3A6969","seeders":1,"leechers":0,"uploader":"IAMH67","files":6,"time":1366467701,"description":"F1 Bahrain GP aired on Sky Sports F1. Commentary by Martin Brundle and his team and from the pits its Ted. \n\nQUALFYING ONLY, PRE/POST QUALIFYING SHOW NOT INCLUDED (it might be uploaded later).\n\nQuality : 720p (check screens at the bottom)\n\nRuntime : 1 Hour and 4 Minutes (from the start of the green light to drivers going for the weigh in)\n\nTechnical Information : \n\nVideo\nID                             : 72 (0x48)\nMenu ID                        : 1 (0x1)\nFormat                         : AVC\nFormat/Info                    : Advanced Video Codec\nFormat profile                 : &lt;a class=&quot;__cf_email__&quot; href=&quot;/cdn-cgi/l/email-protection&quot; data-cfemail=&quot;eea6878986aea2dbc0df&quot;&gt;[email&amp;#160;protected]&lt;/a&gt;&lt;script cf-hash='f9e31' type=&quot;text/javascript&quot;&gt;\n/* &lt;![CDATA[ */!function(){try{var t=&quot;currentScript&quot;in document?document.currentScript:function(){for(var t=document.getElementsByTagName(&quot;script&quot;),e=t.length;e--;)if(t[e].getAttribute(&quot;cf-hash&quot;))return t[e]}();if(t&amp;&amp;t.previousSibling){var e,r,n,i,c=t.previousSibling,a=c.getAttribute(&quot;data-cfemail&quot;);if(a){for(e=&quot;&quot;,r=parseInt(a.substr(0,2),16),n=2;a.length-n;n+=2)i=parseInt(a.substr(n,2),16)^r,e+=String.fromCharCode(i);e=document.createTextNode(e),c.parentNode.replaceChild(e,c)}}}catch(u){}}();/* ]]&gt; */&lt;/script&gt;\nFormat settings, CABAC         : Yes\nFormat settings, ReFrames      : 7 frames\nCodec ID                       : 27\nDuration                       : 1h 4mn\nBit rate                       : 1 904 Kbps\nWidth                          : 1 280 pixels\nHeight                         : 720 pixels\nDisplay aspect ratio           : 16:9\nFrame rate                     : 25.000 fps\nColor space                    : YUV\nChroma subsampling             : 4:2:0\nBit depth                      : 8 bits\nScan type                      : Progressive\nBits/(Pixel*Frame)             : 0.083\nStream size                    : 874 MiB (90%)\nWriting library                : x264 core 115 r2013 6fce39a\n\nAudio\nID                             : 71 (0x47)\nMenu ID                        : 1 (0x1)\nFormat                         : MPEG Audio\nFormat version                 : Version 1\nFormat profile                 : Layer 3\nMode                           : Joint stereo\nMode extension                 : MS Stereo\nCodec ID                       : 3\nDuration                       : 1h 4mn\nBit rate mode                  : Constant\nBit rate                       : 96.0 Kbps\nChannel(s)                     : 2 channels\nSampling rate                  : 44.1 KHz\nCompression mode               : Lossy\nDelay relative to video        : 13ms\nStream size                    : 44.4 MiB (5%)\n\n\nScreens :\n\n &lt;a href=&quot;\nhttp://i.imgur.com/O8tkot7.jpg&quot; rel=&quot;nofollow&quot; target=&quot;_NEW&quot;&gt;\nhttp://i.imgur.com/O8tkot7.jpg&lt;/a&gt;\n &lt;a href=&quot;\nhttp://i.imgur.com/5sclHkw.jpg&quot; rel=&quot;nofollow&quot; target=&quot;_NEW&quot;&gt;\nhttp://i.imgur.com/5sclHkw.jpg&lt;/a&gt;\n &lt;a href=&quot;\nhttp://i.imgur.com/UuMF8bC.jpg&quot; rel=&quot;nofollow&quot; target=&quot;_NEW&quot;&gt;\nhttp://i.imgur.com/UuMF8bC.jpg&lt;/a&gt;","torrent":{"xt":"urn:btih:853467856947d359fac4aa00eb6046f60e55f4f3","amp;dn":"Formula+1+2013+Bahrain+Grand+Prix+-+Qualifying+Sky+720p","amp;tr":["udp%3A%2F%2Ftracker.openbittorrent.com%3A80","udp%3A%2F%2Fopen.demonii.com%3A1337","udp%3A%2F%2Ftracker.coppersurfer.tk%3A6969","udp%3A%2F%2Fexodus.desync.com%3A6969"],"infoHash":"853467856947d359fac4aa00eb6046f60e55f4f3","infoHashBuffer":{"type":"Buffer","data":[133,52,103,133,105,71,211,89,250,196,170,0,235,96,70,246,14,85,244,243]},"announce":[],"urlList":[]}}